<?xml version="1.0" encoding="UTF-8" standalone="no"?>
<!-- Created with Inkscape (http://www.inkscape.org/) -->

<svg
   id="svg2"
   version="1.1"
   inkscape:version="1.1.1 (c3084ef, 2021-09-22)"
   xml:space="preserve"
   width="495.75769"
   height="810"
   viewBox="0 0 495.7577 810"
   sodipodi:docname="contactme.svg"
   inkscape:export-filename="/media/sdb1/_GRAFIKA/Publicdomainq/lidi/publicdomainq-business-man-phone-call.png"
   inkscape:export-xdpi="88.930695"
   inkscape:export-ydpi="88.930695"
   xmlns:inkscape="http://www.inkscape.org/namespaces/inkscape"
   xmlns:sodipodi="http://sodipodi.sourceforge.net/DTD/sodipodi-0.dtd"
   xmlns="http://www.w3.org/2000/svg"
   xmlns:svg="http://www.w3.org/2000/svg"
   xmlns:rdf="http://www.w3.org/1999/02/22-rdf-syntax-ns#"
   xmlns:cc="http://creativecommons.org/ns#"
   xmlns:dc="http://purl.org/dc/elements/1.1/"><title
     id="title7598">Business man using a phone</title><metadata
     id="metadata8"><rdf:RDF><cc:Work
         rdf:about=""><dc:format>image/svg+xml</dc:format><dc:type
           rdf:resource="http://purl.org/dc/dcmitype/StillImage" /><dc:title>Business man using a phone</dc:title><cc:license
           rdf:resource="http://creativecommons.org/publicdomain/zero/1.0/" /><dc:subject><rdf:Bag><rdf:li>man</rdf:li><rdf:li>male</rdf:li><rdf:li>work</rdf:li><rdf:li>office</rdf:li><rdf:li>telephone</rdf:li><rdf:li>phone</rdf:li><rdf:li>call</rdf:li><rdf:li>suit</rdf:li><rdf:li>tie</rdf:li><rdf:li>publicdomainq.net</rdf:li></rdf:Bag></dc:subject><dc:description>This image was adapted from a picture posted to publicdomainq.net. All of the images on these sites are in the public domain i.e. CC0. This site is only in Japanese but can be easily navigated with Google Translate.</dc:description></cc:Work><cc:License
         rdf:about="http://creativecommons.org/publicdomain/zero/1.0/"><cc:permits
           rdf:resource="http://creativecommons.org/ns#Reproduction" /><cc:permits
           rdf:resource="http://creativecommons.org/ns#Distribution" /><cc:permits
           rdf:resource="http://creativecommons.org/ns#DerivativeWorks" /></cc:License></rdf:RDF></metadata><defs
     id="defs6" /><sodipodi:namedview
     pagecolor="#ffffff"
     bordercolor="#666666"
     borderopacity="1"
     objecttolerance="10"
     gridtolerance="10"
     guidetolerance="10"
     inkscape:pageopacity="0"
     inkscape:pageshadow="2"
     inkscape:window-width="1440"
     inkscape:window-height="847"
     id="namedview4"
     showgrid="false"
     inkscape:zoom="1.356542"
     inkscape:cx="293.76165"
     inkscape:cy="545.13611"
     inkscape:window-x="0"
     inkscape:window-y="25"
     inkscape:window-maximized="1"
     inkscape:current-layer="g12"
     fit-margin-top="5"
     fit-margin-left="5"
     fit-margin-bottom="5"
     fit-margin-right="5"
     inkscape:pagecheckerboard="0" /><g
     id="g12"
     transform="matrix(0.45424729,0,0,-0.45424729,5.0558897,804.95643)"
     inkscape:groupmode="layer"><path
       d="m 89.4961,296.18 2.875,-8.25 c 0,0 111.2579,189.48 139.6369,222.402 51.504,59.75 291.976,132.02 291.976,132.02 h 170 c 0,0 225.254,-90.09 258.75,-99.77 56.246,-16.25 97.706,-183.383 97.706,-535.16012 L 320.234,7 286.598,219.672 284.398,237"
       style="fill:#6167a9;fill-opacity:1;fill-rule:nonzero;stroke:none"
       id="path14"
       inkscape:connector-curvature="0" /><path
       d="m 558.113,672.582 c 0,0 -57.215,-10.512 -66.765,-86.25 -6.719,-53.262 -14.551,-182.441 56.836,-464.594 l 120.656,-2.269 c 72,283.722 64.148,413.453 57.41,466.863 -9.551,75.738 -66.77,86.25 -66.77,86.25 H 558.113"
       style="fill:#ffffff;fill-opacity:1;fill-rule:nonzero;stroke:none"
       id="path16"
       inkscape:connector-curvature="0" /><path
       d="m 575.715,7 c -10.277,36.1289 -19.414,82.6797 -27.531,114.738 l -2.207,13.602 43.808,344.742 -11.199,46.25 -0.188,11.199 30.403,40.051 30.933,-40.75 -0.718,-10.5 -11.203,-46.25 44.765,-341.41 -3.738,-19.203 C 660.867,88.0781 651.926,42.2891 641.887,7"
       style="fill:#f0374b;fill-opacity:1;fill-rule:nonzero;stroke:none"
       id="path18"
       inkscape:connector-curvature="0" /><path
       d="m 672.473,691 c 0,0 2.168,-35.262 1.66,-53.418 0,0 -19.172,-46.25 -65.488,-60 -46.321,13.75 -65.493,60 -65.493,60 C 543.398,637.301 541.23,691 541.23,691"
       style="fill:#e3b090;fill-opacity:1;fill-rule:nonzero;stroke:none"
       id="path20"
       inkscape:connector-curvature="0" /><path
       d="m 209.375,1143.03 c -21.25,59.58 -17.242,93.79 -17.242,93.79 l -16.899,-32.32 c -77.4996,302.08 86.25,356.83 86.25,356.83 0,0 -64.824,19.99 -63.039,83.74 0,0 89.289,-21.24 187.618,36.26 91.015,53.22 220.16,89.62 350.839,64.69 117.911,-22.5 140.832,-106.1 140.832,-106.1 0,0 117.102,-16.81 161.246,-142.91 47.5,-135.69 7.5,-266.94 7.5,-266.94 l -12.19,36.07 c 0,0 -2.61,-53.52 -32.83,-124.55 l -12.897,-36.25 -761.665,-16.67 -17.523,54.36"
       style="fill:#1e1515;fill-opacity:1;fill-rule:nonzero;stroke:none"
       id="path22"
       inkscape:connector-curvature="0" /><path
       d="m 211.07,1137.78 15.828,-49.11 23.122,0.51 -38.536,48.24 c -0.089,0.02 -0.273,0.24 -0.414,0.36 z m 827.91,359.23 c -44.144,126.1 -161.246,142.91 -161.246,142.91 0,0 -22.921,83.6 -140.832,106.1 -130.679,24.93 -259.824,-11.47 -350.839,-64.69 -98.329,-57.5 -187.618,-36.26 -187.618,-36.26 -1.785,-63.75 63.039,-83.74 63.039,-83.74 0,0 -163.7496,-54.75 -86.25,-356.83 l 2.754,5.27 c -0.699,3.13 -1.258,6.15 -1.504,8.9 -23.75,270 124.086,341.7 124.086,341.7 0,0 15.602,49.39 113.934,106.89 91.016,53.22 210.059,79.79 341.582,59.72 129.434,-19.74 128.387,-126.18 128.387,-126.18 0,0 122.917,-23.84 167.667,-150.64 -3.36,15.43 -7.64,31.11 -13.16,46.85"
       style="fill:#a68f89;fill-opacity:1;fill-rule:nonzero;stroke:none"
       id="path24"
       inkscape:connector-curvature="0" /><path
       d="m 296.484,922.645 c -106.25,-5 -153.75,141.595 -116.25,194.095 27.051,37.87 81.696,13.53 91.899,-7.24"
       style="fill:#e3b090;fill-opacity:1;fill-rule:nonzero;stroke:none"
       id="path26"
       inkscape:connector-curvature="0" /><path
       d="m 269.766,1050.41 c 10.031,-28.71 22.945,-71.152 3.304,-78.015 -19.636,-6.86 -43.679,10.847 -53.711,39.555 -10.027,28.7 -2.246,57.55 17.395,64.41 19.656,6.86 22.98,2.75 33.012,-25.95"
       style="fill:#de9284;fill-opacity:1;fill-rule:nonzero;stroke:none"
       id="path28"
       inkscape:connector-curvature="0" /><path
       d="m 921.484,922.645 c 106.246,-5 153.746,141.595 116.246,194.095 -27.05,37.87 -81.683,13.53 -91.902,-7.24"
       style="fill:#e3b090;fill-opacity:1;fill-rule:nonzero;stroke:none"
       id="path30"
       inkscape:connector-curvature="0" /><path
       d="m 543.406,709.789 h 126.977 l 1.375,-48.187 c 0,0 -51.106,-47.512 -131.945,-25.43 l 2.406,24.238 1.187,49.379"
       style="fill:#bca191;fill-opacity:1;fill-rule:nonzero;stroke:none"
       id="path32"
       inkscape:connector-curvature="0" /><path
       d="M 405.93,1449.09 C 278.984,1417.58 272.734,1204.5 272.734,1204.5 c -2.89,-113.56 2.227,-308.77 71.25,-383.105 68.567,-73.825 135,-109.997 193.75,-127.497 0,0 72.5,-24.168 142.5,0 58.75,17.5 125.188,53.672 193.75,127.497 75.227,81.007 74.563,307.425 70.325,411.285 -1.25,30.76 -18.157,65.93 -25.532,74.71 -107.293,127.69 -106.992,206.63 -106.992,206.63 l -15.097,-18.16 c -27.665,-27.64 -78.602,-55.15 -171.793,-68.85 0,0 33.335,113.33 60,133.33 0,0 -116.665,-148.33 -306.665,-183.33 0,0 5.981,25.72 21.489,59.29 l 6.211,12.79"
       style="fill:#e3b090;fill-opacity:1;fill-rule:nonzero;stroke:none"
       id="path34"
       inkscape:connector-curvature="0" /><path
       d="m 513.27,1291.26 c -4.122,-3.47 -15.016,3.39 -30.743,12.96 -15.523,9.39 -37.195,21.27 -57.793,18.28 -20.73,-2.45 -38.543,-19.15 -49.148,-32.36 -11.043,-13.38 -15.199,-23.54 -20.356,-24 -2.535,-0.16 -5.363,3.16 -6.484,9.76 -1.125,6.53 -0.445,15.97 3.258,26.64 3.711,10.65 10.309,22.73 21.309,33.81 10.82,10.95 27.031,21.05 46.558,23.52 19.531,2.61 37.774,-3.06 50.859,-10.63 13.34,-7.62 22.747,-16.86 29.512,-25.12 13.403,-16.74 16.86,-29.7 13.028,-32.86"
       style="fill:#231f20;fill-opacity:1;fill-rule:nonzero;stroke:none"
       id="path36"
       inkscape:connector-curvature="0" /><path
       d="m 704.695,1291.26 c -3.828,3.16 -0.371,16.12 13.032,32.86 6.765,8.26 16.168,17.5 29.507,25.11 13.086,7.58 31.329,13.25 50.864,10.64 19.531,-2.47 35.742,-12.57 46.558,-23.52 10.996,-11.08 17.602,-23.16 21.313,-33.81 3.699,-10.67 4.375,-20.11 3.25,-26.64 -1.121,-6.6 -3.953,-9.92 -6.492,-9.76 -5.149,0.46 -9.297,10.62 -20.344,24 -10.606,13.21 -28.418,29.91 -49.153,32.36 -20.593,2.99 -42.261,-8.89 -57.792,-18.28 -15.719,-9.57 -26.622,-16.43 -30.743,-12.96"
       style="fill:#231f20;fill-opacity:1;fill-rule:nonzero;stroke:none"
       id="path38"
       inkscape:connector-curvature="0" /><path
       d="m 447.617,1019.12 c 0,-13.7 -30.84,-24.804 -68.879,-24.804 -38.047,0 -68.883,11.104 -68.883,24.804 0,13.69 30.836,24.79 68.883,24.79 38.039,0 68.879,-11.1 68.879,-24.79"
       style="fill:#f7939c;fill-opacity:1;fill-rule:nonzero;stroke:none"
       id="path40"
       inkscape:connector-curvature="0" /><path
       d="m 914.52,1019.12 c 0,-13.7 -30.836,-24.804 -68.883,-24.804 -38.047,0 -68.891,11.104 -68.891,24.804 0,13.69 30.844,24.79 68.891,24.79 38.047,0 68.883,-11.1 68.883,-24.79"
       style="fill:#f7939c;fill-opacity:1;fill-rule:nonzero;stroke:none"
       id="path42"
       inkscape:connector-curvature="0" /><path
       d="m 948.203,1050.41 c -10.027,-28.71 -22.937,-71.152 -3.308,-78.015 19.648,-6.86 43.691,10.847 53.71,39.555 10.035,28.7 2.245,57.55 -17.382,64.41 -19.668,6.86 -22.993,2.75 -33.02,-25.95"
       style="fill:#de9284;fill-opacity:1;fill-rule:nonzero;stroke:none"
       id="path44"
       inkscape:connector-curvature="0" /><path
       d="m 549.465,1576.42 c 0,0 -117.043,-27.59 -165.063,-195.25 l 39.661,7.99 c 0,0 39.289,126.23 125.402,187.26"
       style="fill:#a68f89;fill-opacity:1;fill-rule:nonzero;stroke:none"
       id="path46"
       inkscape:connector-curvature="0" /><path
       d="m 714.813,1574.09 c 0,0 -50.282,-10.45 -83.75,-143.75 l 32.921,5.42 c 0,0 11.25,93.33 50.829,138.33"
       style="fill:#a68f89;fill-opacity:1;fill-rule:nonzero;stroke:none"
       id="path48"
       inkscape:connector-curvature="0" /><path
       d="m 92.3711,287.93 c 0,0 128.7189,217.172 145.3629,231.371 42.5,36.25 198.75,105 268.75,117.5 l -12.668,-41.699 c 0,0 -201.359,-60.532 -239.414,-108.102 C 214.617,437.27 99.4063,239.5 99.4063,239.5 l -7.0352,48.43"
       style="fill:#c6cbeb;fill-opacity:1;fill-rule:nonzero;stroke:none"
       id="path50"
       inkscape:connector-curvature="0" /><path
       d="m 714.402,630.332 c 0,0 238.325,-85.844 247.5,-90.844 5.161,-2.808 15.356,-13.566 26.993,-35.539 -0.223,0.84 -3.875,-21.679 -4.391,-21.808 -12.578,14.937 -28.41,29.039 -46.77,35.691 -29.738,10.758 -211.777,76.547 -211.777,76.547 l -11.555,35.953"
       style="fill:#c6cbeb;fill-opacity:1;fill-rule:nonzero;stroke:none"
       id="path52"
       inkscape:connector-curvature="0" /><path
       d="m 586.941,482.141 -10.078,50.898 -58.086,-68.219 68.164,17.321"
       style="fill:#c2d0d6;fill-opacity:1;fill-rule:nonzero;stroke:none"
       id="path54"
       inkscape:connector-curvature="0" /><path
       d="m 628.484,482.141 10.079,50.898 58.085,-68.219 -68.164,17.321"
       style="fill:#c2d0d6;fill-opacity:1;fill-rule:nonzero;stroke:none"
       id="path56"
       inkscape:connector-curvature="0" /><path
       d="m 513.105,1142.61 c 0,-45.45 -28.242,-82.29 -63.078,-82.29 -34.839,0 -63.101,36.84 -63.101,82.29 0,45.45 28.262,82.29 63.101,82.29 34.836,0 63.078,-36.84 63.078,-82.29"
       style="fill:#ffffff;fill-opacity:1;fill-rule:nonzero;stroke:none"
       id="path58"
       inkscape:connector-curvature="0" /><path
       d="m 503.27,1130.73 c 0,-30.96 -17.418,-56.05 -38.895,-56.05 -21.484,0 -38.895,25.09 -38.895,56.05 0,30.97 17.411,56.06 38.895,56.06 21.477,0 38.895,-25.09 38.895,-56.06"
       style="fill:#231f20;fill-opacity:1;fill-rule:nonzero;stroke:none"
       id="path60"
       inkscape:connector-curvature="0" /><path
       d="m 502.59,1149.5 c 0,-6.34 -5.141,-11.48 -11.485,-11.48 -6.347,0 -11.503,5.14 -11.503,11.48 0,6.35 5.156,11.5 11.503,11.5 6.344,0 11.485,-5.15 11.485,-11.5"
       style="fill:#ffffff;fill-opacity:1;fill-rule:nonzero;stroke:none"
       id="path62"
       inkscape:connector-curvature="0" /><path
       d="m 455.188,1201.8 c 15.964,0 31.179,-2.9 45.21,-7.99 -12.617,18.38 -30.886,30.02 -51.289,30.02 -23.046,0 -43.379,-14.8 -55.894,-37.45 18.269,9.76 39.39,15.42 61.973,15.42"
       style="fill:#d8e5f6;fill-opacity:1;fill-rule:nonzero;stroke:none"
       id="path64"
       inkscape:connector-curvature="0" /><path
       d="m 506.199,1190.31 c -24.234,51.13 -119.351,55.62 -122.976,-45.17"
       style="fill:none;stroke:#231f20;stroke-width:16;stroke-linecap:round;stroke-linejoin:round;stroke-miterlimit:10;stroke-dasharray:none;stroke-opacity:1"
       id="path66"
       inkscape:connector-curvature="0" /><path
       d="m 702.781,1142.61 c 0,-45.45 28.242,-82.29 63.078,-82.29 34.844,0 63.106,36.84 63.106,82.29 0,45.45 -28.262,82.29 -63.106,82.29 -34.836,0 -63.078,-36.84 -63.078,-82.29"
       style="fill:#ffffff;fill-opacity:1;fill-rule:nonzero;stroke:none"
       id="path68"
       inkscape:connector-curvature="0" /><path
       d="m 757.832,1201.8 c -15.969,0 -31.184,-2.9 -45.215,-7.99 12.617,18.38 30.891,30.02 51.289,30.02 23.047,0 43.379,-14.8 55.899,-37.45 -18.274,9.76 -39.395,15.42 -61.973,15.42"
       style="fill:#d8e5f6;fill-opacity:1;fill-rule:nonzero;stroke:none"
       id="path70"
       inkscape:connector-curvature="0" /><path
       d="m 712.617,1130.73 c 0,-30.96 17.422,-56.05 38.899,-56.05 21.48,0 38.894,25.09 38.894,56.05 0,30.97 -17.414,56.06 -38.894,56.06 -21.477,0 -38.899,-25.09 -38.899,-56.06"
       style="fill:#231f20;fill-opacity:1;fill-rule:nonzero;stroke:none"
       id="path72"
       inkscape:connector-curvature="0" /><path
       d="m 766.633,1149.5 c 0,-6.34 5.137,-11.48 11.48,-11.48 6.352,0 11.504,5.14 11.504,11.48 0,6.35 -5.152,11.5 -11.504,11.5 -6.343,0 -11.48,-5.15 -11.48,-11.5"
       style="fill:#ffffff;fill-opacity:1;fill-rule:nonzero;stroke:none"
       id="path74"
       inkscape:connector-curvature="0" /><path
       d="m 709.688,1190.31 c 24.238,51.13 119.355,55.62 122.98,-45.17"
       style="fill:none;stroke:#231f20;stroke-width:16;stroke-linecap:round;stroke-linejoin:round;stroke-miterlimit:10;stroke-dasharray:none;stroke-opacity:1"
       id="path76"
       inkscape:connector-curvature="0" /><path
       d="m 828.23,1575.34 c 0,0 23.333,-115 -203.335,-148.33 0,0 33.335,113.33 60,133.33 0,0 -116.665,-148.33 -306.665,-183.33 0,0 33.333,143.33 146.665,195"
       style="fill:none;stroke:#231f20;stroke-width:14;stroke-linecap:round;stroke-linejoin:round;stroke-miterlimit:10;stroke-dasharray:none;stroke-opacity:1"
       id="path78"
       inkscape:connector-curvature="0" /><path
       d="m 584.09147,1110.0452 c 8.82085,-7.0567 22.56153,-78.7894 10.28953,-103.7013"
       style="fill:none;stroke:#231f20;stroke-width:16.7128;stroke-linecap:round;stroke-linejoin:round;stroke-miterlimit:10;stroke-dasharray:none;stroke-opacity:1"
       id="path82"
       inkscape:connector-curvature="0"
       sodipodi:nodetypes="cc" /><path
       d="m 296.484,922.645 c -106.25,-5 -153.75,141.595 -116.25,194.095 27.051,37.87 81.696,13.53 91.899,-7.24"
       style="fill:none;stroke:#231f20;stroke-width:14;stroke-linecap:round;stroke-linejoin:round;stroke-miterlimit:10;stroke-dasharray:none;stroke-opacity:1"
       id="path84"
       inkscape:connector-curvature="0" /><path
       d="m 276.527,1043.91 c 0,0 -35.589,72.81 -75.922,38.67"
       style="fill:none;stroke:#231f20;stroke-width:14;stroke-linecap:round;stroke-linejoin:round;stroke-miterlimit:10;stroke-dasharray:none;stroke-opacity:1"
       id="path86"
       inkscape:connector-curvature="0" /><path
       d="m 921.484,922.645 c 106.246,-5 153.746,141.595 116.246,194.095 -27.05,37.87 -81.683,13.53 -91.902,-7.24"
       style="fill:none;stroke:#231f20;stroke-width:14;stroke-linecap:round;stroke-linejoin:round;stroke-miterlimit:10;stroke-dasharray:none;stroke-opacity:1"
       id="path88"
       inkscape:connector-curvature="0" /><path
       d="m 941.438,1043.91 c 0,0 35.593,72.81 75.922,38.67"
       style="fill:none;stroke:#231f20;stroke-width:14;stroke-linecap:round;stroke-linejoin:round;stroke-miterlimit:10;stroke-dasharray:none;stroke-opacity:1"
       id="path90"
       inkscape:connector-curvature="0" /><path
       d="m 811.785,1514.02 c 0,0 -0.301,-78.94 106.992,-206.63 7.375,-8.78 24.282,-43.95 25.532,-74.71 4.238,-103.86 4.902,-330.278 -70.325,-411.285 -68.562,-73.825 -135,-109.997 -193.75,-127.497 -70,-24.168 -142.5,0 -142.5,0 -58.75,17.5 -125.183,53.672 -193.75,127.497 -69.023,74.335 -74.14,269.545 -71.25,383.105 0,0 6.25,213.08 133.196,244.59"
       style="fill:none;stroke:#231f20;stroke-width:14;stroke-linecap:round;stroke-linejoin:round;stroke-miterlimit:10;stroke-dasharray:none;stroke-opacity:1"
       id="path92"
       inkscape:connector-curvature="0" /><path
       d="m 201.145,1254.62 c -13.817,-27.66 -25.911,-50.12 -25.911,-50.12 -77.4996,302.08 86.25,356.83 86.25,356.83 0,0 -64.824,19.99 -63.039,83.74 0,0 89.289,-21.24 187.618,36.26 91.015,53.22 220.16,89.62 350.839,64.69 117.911,-22.5 140.832,-106.1 140.832,-106.1 0,0 117.102,-16.81 161.246,-142.91 47.5,-135.69 7.5,-266.94 7.5,-266.94 0,0.01 -10.82,33.53 -24.26,69.47"
       style="fill:none;stroke:#231f20;stroke-width:14;stroke-linecap:round;stroke-linejoin:round;stroke-miterlimit:10;stroke-dasharray:none;stroke-opacity:1"
       id="path94"
       inkscape:connector-curvature="0" /><path
       d="m 192.133,1236.82 c 0,0 -4.008,-34.21 17.242,-93.79"
       style="fill:none;stroke:#231f20;stroke-width:14;stroke-linecap:round;stroke-linejoin:round;stroke-miterlimit:10;stroke-dasharray:none;stroke-opacity:1"
       id="path96"
       inkscape:connector-curvature="0" /><path
       d="m 1034.29,1266.14 c 0,0 -2.61,-53.52 -32.83,-124.55"
       style="fill:none;stroke:#231f20;stroke-width:14;stroke-linecap:round;stroke-linejoin:round;stroke-miterlimit:10;stroke-dasharray:none;stroke-opacity:1"
       id="path98"
       inkscape:connector-curvature="0" /><path
       d="m 513.27,1291.26 c -4.122,-3.47 -15.016,3.39 -30.743,12.96 -15.523,9.39 -37.195,21.27 -57.793,18.28 -20.73,-2.45 -38.543,-19.15 -49.148,-32.36 -11.043,-13.38 -15.199,-23.54 -20.356,-24 -2.535,-0.16 -5.363,3.16 -6.484,9.76 -1.125,6.53 -0.445,15.97 3.258,26.64 3.711,10.65 10.309,22.73 21.309,33.81 10.82,10.95 27.031,21.05 46.558,23.52 19.531,2.61 37.774,-3.06 50.859,-10.63 13.34,-7.62 22.747,-16.86 29.512,-25.12 13.403,-16.74 16.86,-29.7 13.028,-32.86"
       style="fill:#231f20;fill-opacity:1;fill-rule:nonzero;stroke:none"
       id="path100"
       inkscape:connector-curvature="0" /><path
       d="m 704.695,1291.26 c -3.828,3.16 -0.371,16.12 13.032,32.86 6.765,8.26 16.168,17.5 29.507,25.11 13.086,7.58 31.329,13.25 50.864,10.64 19.531,-2.47 35.742,-12.57 46.558,-23.52 10.996,-11.08 17.602,-23.16 21.313,-33.81 3.699,-10.67 4.375,-20.11 3.25,-26.64 -1.121,-6.6 -3.953,-9.92 -6.492,-9.76 -5.149,0.46 -9.297,10.62 -20.344,24 -10.606,13.21 -28.418,29.91 -49.153,32.36 -20.593,2.99 -42.261,-8.89 -57.792,-18.28 -15.719,-9.57 -26.622,-16.43 -30.743,-12.96"
       style="fill:#231f20;fill-opacity:1;fill-rule:nonzero;stroke:none"
       id="path102"
       inkscape:connector-curvature="0" /><path
       d="M 508.672,637.59 C 454.895,620.559 275.637,560.949 232.008,510.332 203.629,477.41 92.3711,287.93 92.3711,287.93"
       style="fill:none;stroke:#231f20;stroke-width:14;stroke-linecap:round;stroke-linejoin:round;stroke-miterlimit:10;stroke-dasharray:none;stroke-opacity:1"
       id="path104"
       inkscape:connector-curvature="0" /><path
       d="M 539.141,665.07 C 521.57,655.219 497.273,633.34 491.348,586.332 483.867,527.012 475,361.039 575.715,7"
       style="fill:none;stroke:#231f20;stroke-width:14;stroke-linecap:round;stroke-linejoin:round;stroke-miterlimit:10;stroke-dasharray:none;stroke-opacity:1"
       id="path106"
       inkscape:connector-curvature="0" /><path
       d="m 675.09,666.84 c 17.676,-8.86 44.844,-30.418 51.16,-80.508 C 733.73,527.012 742.598,361.039 641.887,7"
       style="fill:none;stroke:#231f20;stroke-width:14;stroke-linecap:round;stroke-linejoin:round;stroke-miterlimit:10;stroke-dasharray:none;stroke-opacity:1"
       id="path108"
       inkscape:connector-curvature="0" /><path
       d="m 487.18,631.512 -121.172,-88.821 48.914,-87.5 -76.25,-64.601 c 0,0 121.496,-259.36 206.992,-373.7189"
       style="fill:none;stroke:#231f20;stroke-width:12;stroke-linecap:round;stroke-linejoin:round;stroke-miterlimit:10;stroke-dasharray:none;stroke-opacity:1"
       id="path110"
       inkscape:connector-curvature="0" /><path
       d="m 673.34,691.891 c 0,0 0.808,-36.262 3.254,-53.36 0,0 -21.633,-47.199 -67.949,-60.949 -46.321,13.75 -69.75,60.539 -69.75,60.539 1.222,19.969 1.632,53.77 1.632,53.77"
       style="fill:none;stroke:#231f20;stroke-width:14;stroke-linecap:round;stroke-linejoin:round;stroke-miterlimit:10;stroke-dasharray:none;stroke-opacity:1"
       id="path112"
       inkscape:connector-curvature="0" /><path
       d="m 711.641,635.301 c 53.73,-21.391 213.32,-84.692 241.093,-92.719 56.246,-16.25 97.706,-183.383 97.706,-535.16012"
       style="fill:none;stroke:#231f20;stroke-width:14;stroke-linecap:round;stroke-linejoin:round;stroke-miterlimit:10;stroke-dasharray:none;stroke-opacity:1"
       id="path114"
       inkscape:connector-curvature="0" /><path
       d="m 736.609,625.012 119.161,-82.321 -48.915,-87.5 76.25,-64.601 c 0,0 -136.511,-275.391 -216.667,-377.9884"
       style="fill:none;stroke:#231f20;stroke-width:12;stroke-linecap:round;stroke-linejoin:round;stroke-miterlimit:10;stroke-dasharray:none;stroke-opacity:1"
       id="path116"
       inkscape:connector-curvature="0" /><path
       d="M 578.586,533.039 589.785,480.082 545.977,135.34"
       style="fill:none;stroke:#231f20;stroke-width:12;stroke-linecap:round;stroke-linejoin:round;stroke-miterlimit:10;stroke-dasharray:none;stroke-opacity:1"
       id="path118"
       inkscape:connector-curvature="0" /><path
       d="m 639.016,533.039 -11.203,-52.957 44.765,-341.41"
       style="fill:none;stroke:#231f20;stroke-width:12;stroke-linecap:round;stroke-linejoin:round;stroke-miterlimit:10;stroke-dasharray:none;stroke-opacity:1"
       id="path120"
       inkscape:connector-curvature="0" /><path
       d="M 253.57,416.211 320.234,7"
       style="fill:none;stroke:#231f20;stroke-width:12;stroke-linecap:round;stroke-linejoin:round;stroke-miterlimit:10;stroke-dasharray:none;stroke-opacity:1"
       id="path122"
       inkscape:connector-curvature="0" /><path
       d="M 988.563,503.672 902.734,7"
       style="fill:none;stroke:#231f20;stroke-width:12;stroke-linecap:round;stroke-linejoin:round;stroke-miterlimit:10;stroke-dasharray:none;stroke-opacity:1"
       id="path124"
       inkscape:connector-curvature="0" /><path
       d="m 1003.42,327.52 c 0,0 -18.303,-103.829 -73.869,-155.641"
       style="fill:none;stroke:#231f20;stroke-width:10;stroke-linecap:round;stroke-linejoin:round;stroke-miterlimit:10;stroke-dasharray:none;stroke-opacity:1"
       id="path126"
       inkscape:connector-curvature="0" /><path
       d="M 726.25,586.332 C 721.934,525.082 699.434,458.199 699.434,458.199 L 608.801,577.582 518.164,458.199 c 0,0 -22.5,66.883 -26.816,128.133"
       style="fill:none;stroke:#231f20;stroke-width:12;stroke-linecap:round;stroke-linejoin:round;stroke-miterlimit:10;stroke-dasharray:none;stroke-opacity:1"
       id="path128"
       inkscape:connector-curvature="0" /><path
       d="m 606.688,745.559 c -69.165,0 -129.165,165 -129.165,165 26.665,-12.5 85.829,-21.664 128.329,-21.664 h -0.825 c 42.5,0 101.661,9.164 128.325,21.664 0,0 -60,-165 -129.164,-165 h 2.5"
       style="fill:#ed5d84;fill-opacity:1;fill-rule:nonzero;stroke:none"
       id="path130"
       inkscape:connector-curvature="0" /><path
       d="m 509.813,839.551 c 26.179,14.465 57.855,22.969 92.042,22.969 36.614,0 70.286,-9.832 97.461,-26.219 20.965,38.328 34.036,74.258 34.036,74.258 -26.582,-12.461 -85.442,-21.594 -127.914,-21.653 -42.469,0.059 -101.333,9.192 -127.915,21.653 0,0 12.364,-33.926 32.29,-71.008"
       style="fill:#d54851;fill-opacity:1;fill-rule:nonzero;stroke:none"
       id="path132"
       inkscape:connector-curvature="0" /><path
       d="m 606.688,745.559 c -69.165,0 -129.165,165 -129.165,165 26.665,-12.5 85.829,-21.664 128.329,-21.664 h -0.825 c 42.5,0 101.661,9.164 128.325,21.664 0,0 -60,-165 -129.164,-165 z"
       style="fill:none;stroke:#231f20;stroke-width:14;stroke-linecap:round;stroke-linejoin:round;stroke-miterlimit:10;stroke-dasharray:none;stroke-opacity:1"
       id="path134"
       inkscape:connector-curvature="0" /><path
       d="m 306.848,572.891 c 0,0 29.812,-7.469 26.09,-22.403 -3.75,-14.898 -27.872,-85.347 -27.872,-85.347 0,0 16.516,-21.7 8.157,-54.141 l -6.535,-143.641 c 0,0 -55.805,-153 -112.915,-197.7106 C 136.645,25 25.4492,25.3984 8.06641,114.73 -4.83984,181.039 89.8047,483.141 89.8047,483.141 c 0,0 32.7343,81.781 36.7583,92.07 4.023,10.309 47.652,11.641 47.652,11.641"
       style="fill:#6167a9;fill-opacity:1;fill-rule:nonzero;stroke:none"
       id="path136"
       inkscape:connector-curvature="0" /><path
       d="m 334.746,656.43 c 0,0 25.266,-22 44.375,-28.09 18.574,-5.918 56.637,12.359 56.637,12.359 0,0 2.734,91 3.597,119.789 0.86,28.782 -15.988,38.106 -15.988,38.106 -38.39,26.828 -77.461,58.554 -105.48,85.726 l -128.059,170.5 c -10.691,21.16 -17.555,38.3 -21.64,49.74 0,0 -5.024,16.48 -20.418,16.93 -15.375,0.47 -46.032,6.08 -46.973,-25.37 -0.9454,-31.46 1.43,-153.421 1.43,-153.421 0,0 7.226,-49.105 24.8,-66.383 L 334.746,656.43"
       style="fill:#feeedb;fill-opacity:1;fill-rule:nonzero;stroke:none"
       id="path138"
       inkscape:connector-curvature="0" /><path
       d="m 348.98,862.949 c 17.606,6.184 16.551,39.258 12.235,50.547 -8.102,21.16 -19.477,32.793 -31.895,37.981 l 0.41,6.5 c -7.601,19.05 -19.324,28.632 -32.46,32.043 l -4.629,3.89 c -15.086,27.86 -44.461,26.39 -69.442,15.23 l -3.086,1.01 c 0,0 21.696,20.72 18.078,44.34 -3.921,25.56 -30.632,28.38 -39.07,14.56 -11.172,-18.25 -25.766,-32.71 -45.062,-50.89 -19.313,-18.172 -24.215,-137.246 -24.215,-137.246 -4.883,-73.531 79.828,-203.766 79.828,-203.766 L 162.613,561.41 c 0,0 26.071,-39.18 121.348,-18.379 0,0 19.711,60.207 48.148,114.957 28.442,54.731 -15.105,165.735 -15.105,165.735 -11.695,39.402 -6.324,55.101 1.566,62.562 l 30.41,-23.336"
       style="fill:#e3b090;fill-opacity:1;fill-rule:nonzero;stroke:none"
       id="path140"
       inkscape:connector-curvature="0" /><path
       d="M 143.629,526.5 C 134.465,507.34 108.34,452.699 61.2734,281.332 12.5234,103.832 50.6016,58.7109 50.6016,58.7109 c 0,0 -33.4024,11.3282 -40.3477,73.5191 -6.95312,62.161 113.9921,442.411 113.9921,442.411 0,0 -3.594,-37.532 19.383,-48.141"
       style="fill:#c6cbeb;fill-opacity:1;fill-rule:nonzero;stroke:none"
       id="path142"
       inkscape:connector-curvature="0" /><path
       d="m 174.215,551.43 c 0,0 103.07,0.191 122.531,26.16 l -10.957,-36.16 c 0,0 -70.738,-20 -111.574,10"
       style="fill:#da907b;fill-opacity:1;fill-rule:nonzero;stroke:none"
       id="path144"
       inkscape:connector-curvature="0" /><path
       d="m 283.961,543.031 c 0,0 22.539,58.828 48.148,114.957 19.832,43.481 -15.105,165.735 -15.105,165.735 -18.863,63.527 6.656,65.437 15.512,70.547"
       style="fill:none;stroke:#231f20;stroke-width:14;stroke-linecap:round;stroke-linejoin:round;stroke-miterlimit:10;stroke-dasharray:none;stroke-opacity:1"
       id="path146"
       inkscape:connector-curvature="0" /><path
       d="m 219.566,1006.7 c 0,0 22.243,24.17 18.625,47.79 -3.921,25.56 -30.632,28.38 -39.07,14.56 -11.172,-18.25 -25.766,-32.71 -45.062,-50.89 -19.313,-18.172 -24.215,-137.246 -24.215,-137.246 -1.145,-42.137 44.109,-139.254 69.203,-185.055 10.289,-18.789 3.504,-35.16 3.504,-35.16 L 162.613,561.41"
       style="fill:none;stroke:#231f20;stroke-width:14;stroke-linecap:round;stroke-linejoin:round;stroke-miterlimit:10;stroke-dasharray:none;stroke-opacity:1"
       id="path148"
       inkscape:connector-curvature="0" /><path
       d="m 171.41,874.746 c 0,0 -3.605,88.801 19.215,112.18 23.496,24.074 83.004,45.024 106.074,-5.781"
       style="fill:none;stroke:#231f20;stroke-width:12;stroke-linecap:round;stroke-linejoin:round;stroke-miterlimit:10;stroke-dasharray:none;stroke-opacity:1"
       id="path150"
       inkscape:connector-curvature="0" /><path
       d="m 206.438,865.957 c 0,0 5.984,69.418 18.195,81.809 23.613,23.972 83.066,56.714 106.125,-0.911"
       style="fill:none;stroke:#231f20;stroke-width:12;stroke-linecap:round;stroke-linejoin:round;stroke-miterlimit:10;stroke-dasharray:none;stroke-opacity:1"
       id="path152"
       inkscape:connector-curvature="0" /><path
       d="m 252.117,843.633 c 0,0 1.074,69.101 15.52,80.066 26.801,20.328 77.207,37.317 93.578,-10.203 3.941,-11.43 5.371,-44.363 -12.235,-50.547"
       style="fill:none;stroke:#231f20;stroke-width:12;stroke-linecap:round;stroke-linejoin:round;stroke-miterlimit:10;stroke-dasharray:none;stroke-opacity:1"
       id="path154"
       inkscape:connector-curvature="0" /><path
       d="m 317.887,884.32 c 28.019,-27.172 67.09,-58.898 105.48,-85.726 0,0 16.848,-9.324 15.988,-38.106 -0.863,-28.789 -3.597,-119.789 -3.597,-119.789 0,0 -38.063,-18.277 -56.637,-12.359 -19.109,6.09 -40.156,25.789 -40.156,25.789"
       style="fill:none;stroke:#231f20;stroke-width:14;stroke-linecap:round;stroke-linejoin:round;stroke-miterlimit:10;stroke-dasharray:none;stroke-opacity:1"
       id="path156"
       inkscape:connector-curvature="0" /><path
       d="m 127.027,876.316 c -17.574,17.278 -24.8,66.383 -24.8,66.383 0,0 -2.3754,121.961 -1.43,153.421 0.941,31.45 31.598,25.84 46.973,25.37 15.394,-0.45 20.418,-16.93 20.418,-16.93 4.085,-11.44 10.949,-28.58 21.64,-49.74"
       style="fill:none;stroke:#231f20;stroke-width:14;stroke-linecap:round;stroke-linejoin:round;stroke-miterlimit:10;stroke-dasharray:none;stroke-opacity:1"
       id="path158"
       inkscape:connector-curvature="0" /><path
       d="m 171.715,588.102 c 0,0 -39.582,0.418 -45.152,-12.891 -4.262,-10.191 -36.7583,-92.07 -36.7583,-92.07 0,0 -93.76564,-308.282 -81.73829,-366.231 C 24.6875,36.8203 130.535,15.2109 193.773,69.6484 c 54.961,47.3126 93.54,155.8396 93.54,155.8396"
       style="fill:none;stroke:#231f20;stroke-width:14;stroke-linecap:round;stroke-linejoin:round;stroke-miterlimit:10;stroke-dasharray:none;stroke-opacity:1"
       id="path160"
       inkscape:connector-curvature="0" /><path
       d="m 306.848,572.891 c 0,0 30.492,-7.661 26.09,-22.403 -14.165,-47.5 -29.165,-107.5 -29.165,-107.5 l -95,-330"
       style="fill:none;stroke:#231f20;stroke-width:14;stroke-linecap:round;stroke-linejoin:round;stroke-miterlimit:10;stroke-dasharray:none;stroke-opacity:1"
       id="path162"
       inkscape:connector-curvature="0" /><path
       d="m 316.273,583.398 -22.085,-56.039 c -24.508,-26.89 -107.727,-14.879 -146.692,27.563 0,0 18.012,54.988 21.692,61.398 0,0 47.921,-60.832 147.085,-32.922"
       style="fill:#ffffff;fill-opacity:1;fill-rule:nonzero;stroke:none"
       id="path164"
       inkscape:connector-curvature="0" /><path
       d="m 316.273,583.398 -22.085,-56.039 c -24.508,-26.89 -107.727,-14.879 -146.692,27.563 0,0 18.012,54.988 21.692,61.398 0,0 47.921,-60.832 147.085,-32.922 z"
       style="fill:none;stroke:#231f20;stroke-width:14;stroke-linecap:round;stroke-linejoin:round;stroke-miterlimit:10;stroke-dasharray:none;stroke-opacity:1"
       id="path166"
       inkscape:connector-curvature="0" /></g></svg>
